<svg xmlns="http://www.w3.org/2000/svg" viewBox="0 0 180 180">
  <rect width="180" height="180" rx="40" fill="#0e0c09"/>
  <g transform="translate(90,90)">
    <path d="M0,-48 C18,-35 35,-13 26,17 C18,39 -4,48 -18,39 C-9,26 4,9 0,-9 C-4,-26 -18,-39 -4,-48 Z"
          fill="#c4813c" opacity="0.95"/>
    <path d="M0,-48 C-18,-35 -35,-13 -26,17 C-18,39 4,48 18,39 C9,26 -4,9 0,-9 C4,-26 18,-39 4,-48 Z"
          fill="#a06830" opacity="0.75"/>
    <path d="M-4,39 L0,56 L4,39 Z" fill="#c4813c"/>
    <line x1="0" y1="-44" x2="0" y2="52" stroke="#0e0c09" stroke-width="1" opacity="0.35"/>
  </g>
</svg>
